<svg width="107" height="107" viewBox="0 0 107 107" fill="none" xmlns="http://www.w3.org/2000/svg">
<path d="M83.46 81.32H23.54C19.902 81.32 17.12 78.538 17.12 74.9V36.38C17.12 32.742 19.902 29.96 23.54 29.96H36.38C36.808 29.96 37.45 29.532 37.664 29.318L40.018 24.61C40.874 22.898 43.014 21.614 44.94 21.614H62.06C63.986 21.614 66.126 22.898 66.982 24.61L69.336 29.318C69.55 29.746 70.192 29.96 70.62 29.96H83.46C87.098 29.96 89.88 32.742 89.88 36.38V74.9C89.88 78.538 87.098 81.32 83.46 81.32ZM23.54 34.24C22.256 34.24 21.4 35.096 21.4 36.38V74.9C21.4 76.184 22.256 77.04 23.54 77.04H83.46C84.744 77.04 85.6 76.184 85.6 74.9V36.38C85.6 35.096 84.744 34.24 83.46 34.24H70.62C68.694 34.24 66.554 32.956 65.698 31.244L63.344 26.536C63.13 26.108 62.488 25.68 62.06 25.68H44.94C44.512 25.68 43.87 26.108 43.656 26.322L41.302 31.03C40.446 32.956 38.306 34.24 36.38 34.24H23.54Z" fill="black"/>
<path d="M53.5 72.76C42.8 72.76 34.24 64.2 34.24 53.5C34.24 42.8 42.8 34.24 53.5 34.24C64.2 34.24 72.76 42.8 72.76 53.5C72.76 64.2 64.2 72.76 53.5 72.76ZM53.5 38.52C45.154 38.52 38.52 45.154 38.52 53.5C38.52 61.846 45.154 68.48 53.5 68.48C61.846 68.48 68.48 61.846 68.48 53.5C68.48 45.154 61.846 38.52 53.5 38.52Z" fill="black"/>
<path d="M74.9 40.66C76.0819 40.66 77.04 39.7019 77.04 38.52C77.04 37.3381 76.0819 36.38 74.9 36.38C73.7181 36.38 72.76 37.3381 72.76 38.52C72.76 39.7019 73.7181 40.66 74.9 40.66Z" fill="black"/>
<path d="M25.6801 25.6801H34.2401V27.8201H25.6801V25.6801Z" fill="black"/>
<path d="M53.5 44.94V42.8C47.508 42.8 42.8 47.508 42.8 53.5H44.94C44.94 48.792 48.792 44.94 53.5 44.94Z" fill="black"/>
</svg>
