<svg width="77" height="77" viewBox="0 0 77 77" fill="none" xmlns="http://www.w3.org/2000/svg">
<path d="M64.8184 10.7824L64.6355 10.5827L64.3792 10.454C49.446 2.95848 46.1567 2.58913 39.5142 2.41708C38.8386 2.40264 38.1626 2.40264 37.487 2.41708C30.8433 2.58913 27.5516 2.95728 12.6208 10.454L12.3645 10.5827L12.1816 10.7824C11.781 11.2252 2.40625 22.0834 2.40625 63.4528L2.41587 65.2852L4.4648 64.686C4.5045 64.674 8.45075 63.5599 15.9198 64.5056C15.0977 66.8845 14.1074 69.202 12.9565 71.4404L12.3176 72.6904L13.8167 73.1837C14.2378 73.3196 24.0974 76.4381 37.5808 71.6256C43.7877 73.9152 49.1946 74.5938 53.426 74.5938C59.3754 74.5938 63.004 73.2523 63.2603 73.156L64.6487 72.6254L64.0423 71.4416C62.8914 69.2032 61.9011 66.8857 61.079 64.5068C68.5492 63.5623 72.4943 64.6764 72.528 64.6848L74.5938 65.3116V63.4528C74.5938 22.0834 65.2178 11.2252 64.8184 10.7824ZM37.5832 5.03267C38.0416 5.02064 38.9608 5.02064 39.4156 5.03267C41.6811 5.09163 43.4749 5.13975 45.6742 5.60416C43.8353 12.4634 41.8214 19.2745 39.6345 26.0308C34.8329 18.0866 32.2582 8.09823 31.6494 5.53798C33.7031 5.13373 35.4284 5.08802 37.5832 5.03267ZM5.50069 61.8081C5.51633 59.4235 5.56445 57.1508 5.64025 54.9744C9.79825 52.6836 15.4734 52.7438 15.4734 52.7438C11.1121 51.6634 7.63623 51.9967 5.74492 52.3564C7.09002 23.6378 13.4594 13.9466 14.4928 12.5558C17.9278 10.8353 20.6962 9.52033 23.0074 8.5073C24.0348 11.0615 26.6925 17.0266 31.6939 24.4367C31.6939 24.4367 27.3579 13.6146 25.9394 7.28492C26.9464 6.8927 27.8523 6.57027 28.6825 6.30678C29.4814 9.65508 32.5421 21.2087 38.4447 29.6101C36.3849 35.6991 34.0605 41.8976 31.6987 46.9219C27.4673 47.1023 24.3452 47.4573 22.5393 47.7087C22.6428 43.9345 22.4311 40.5068 21.9679 37.9069C20.5951 30.1948 21.9679 24.344 21.9679 24.344C20.6192 26.4868 20.3605 27.9787 20.3605 27.9787L17.846 24.8481C20.3557 30.4451 17.876 29.9638 19.6362 38.5662C19.7722 39.2303 19.8708 39.9293 19.9418 40.656C17.8484 40.4262 14.1993 40.3203 11.3551 41.7978C11.3551 41.7978 16.1086 40.8581 20.0609 42.8746C20.1211 46.6415 19.5303 50.897 18.7134 54.901C14.7708 54.7446 11.0928 56.1258 11.0928 56.1258C13.5185 55.8714 15.9705 56.1473 18.2791 56.9343C17.8929 58.6357 17.4681 60.3282 17.005 62.0103C11.5524 61.2583 7.67233 61.4977 5.50069 61.8081ZM17.2961 71.2503C20.2113 65.7375 21.7766 58.3468 22.3252 51.507C25.0394 51.8078 27.6623 52.0171 30.1696 52.1579C27.9137 54.19 24.9023 57.6682 21.9691 63.4275C21.9691 63.4275 24.6953 64.283 27.27 65.0445C27.27 65.0445 29.2035 61.3389 32.399 57.1653C33.323 61.9068 34.9797 67.1681 35.7304 69.4408C27.4361 72.2513 20.6841 71.8001 17.2961 71.2503ZM38.8754 69.2483C38.1559 67.0935 35.6775 59.4163 35.0061 54.0444C35.8628 54.7145 36.5918 55.132 36.8806 54.8902C37.2066 54.611 38.3604 53.746 39.5756 52.763C44.2762 58.0015 47.26 63.7343 47.26 63.7343C49.8358 62.9728 52.5609 62.1173 52.5609 62.1173C50.2016 57.4829 47.7953 54.3391 45.7681 52.2192C50.2425 52.0051 53.4633 51.6417 54.9515 51.4504C55.499 58.3239 57.0714 65.7616 60.0107 71.2948C56.5517 72.0323 48.8252 72.8973 38.8754 69.2483ZM60.2645 61.973C59.84 60.4264 59.4473 58.8712 59.0867 57.3085C60.2826 56.7959 63.3662 55.7083 67.2523 56.127C67.2523 56.127 62.8958 54.4943 58.5814 54.9876C57.8041 51.1809 57.2254 47.142 57.2158 43.5062C61.3161 40.6728 66.9864 41.8002 66.9864 41.8002C63.5599 40.0195 58.9495 40.5381 57.3217 40.7992C57.3927 40.0232 57.4973 39.2772 57.6417 38.5686C59.4019 29.9662 56.9222 30.4475 59.432 24.8505L56.9174 27.9811C56.9174 27.9811 56.6588 26.4892 55.3101 24.3464C55.3101 24.3464 56.6852 30.1972 55.3101 37.9093C54.842 40.5441 54.6327 44.0284 54.7458 47.8615C49.9508 47.2902 45.1312 46.9489 40.3035 46.8389C38.9536 45.744 37.4918 44.7526 36.8914 45.1232C36.8914 45.1232 36.2369 45.5491 35.3598 46.1543C41.592 32.1908 47.361 11.1494 48.6279 6.40905C49.4617 6.68216 50.3712 7.01302 51.3819 7.41366C49.9345 13.7589 45.655 24.4379 45.655 24.4379C50.5782 17.1421 53.2262 11.2552 54.2886 8.63723C56.5397 9.63222 59.219 10.9087 62.506 12.5546C63.5539 13.9683 69.8799 23.633 71.2479 52.1531C69.2483 51.9233 66.3415 51.8848 62.8705 52.745C62.8705 52.745 67.4039 52.7029 71.3369 54.3307C71.4259 56.7021 71.4849 59.1829 71.5017 61.8081C69.365 61.5025 65.5751 61.2655 60.2645 61.973Z" fill="black"/>
</svg>
