<svg width="90" height="90" viewBox="0 0 90 90" fill="none" xmlns="http://www.w3.org/2000/svg">
<path d="M45 12.0001C40.944 11.9401 40.944 18.0601 45 18.0001H54V25.5961L37.182 39.6001L31.338 24.0001H33C37.056 24.0601 37.056 17.9401 33 18.0001H21C16.944 17.9401 16.944 24.0601 21 24.0001H24.912L30.258 38.2501C27.3889 36.7904 24.219 36.02 21 36.0001C9.438 36.0001 0 45.4381 0 57.0001C0 68.5621 9.438 78.0001 21 78.0001C32.562 78.0001 42 68.5621 42 57.0001C42 52.9801 40.8 49.2541 38.82 46.0561L55.746 31.9561L58.524 38.9161C52.26 42.5641 48 49.2661 48 57.0001C48 68.5621 57.438 78.0001 69 78.0001C80.562 78.0001 90 68.5621 90 57.0001C90 45.4381 80.562 36.0001 69 36.0001C67.302 36.0001 65.676 36.2581 64.092 36.6421L60 26.4121V15.0001C60 14.2044 59.6839 13.4414 59.1213 12.8788C58.5587 12.3161 57.7957 12.0001 57 12.0001H45ZM21 42.0001C24.3976 42.0085 27.69 43.1793 30.33 45.3181L19.08 54.6901C16.014 57.2521 19.848 61.8601 22.92 59.3101L34.17 49.9321C35.298 52.0441 36 54.4321 36 57.0001C36 65.3221 29.322 72.0001 21 72.0001C12.678 72.0001 6 65.3221 6 57.0001C6 48.6781 12.678 42.0001 21 42.0001ZM69 42.0001C77.322 42.0001 84 48.6781 84 57.0001C84 65.3221 77.322 72.0001 69 72.0001C60.678 72.0001 54 65.3221 54 57.0001C54 51.7381 56.682 47.1481 60.75 44.4721L66.21 58.1161C67.686 61.8541 73.29 59.6161 71.79 55.8841L66.342 42.2641C67.2 42.1201 68.088 42.0001 69 42.0001Z" fill="black"/>
</svg>
