<svg width="72" height="72" viewBox="0 0 72 72" fill="none" xmlns="http://www.w3.org/2000/svg">
<path d="M36 72C31.125 72 26.4609 71.0508 22.0078 69.1523C17.5547 67.2539 13.7227 64.6992 10.5117 61.4883C7.30078 58.2773 4.74609 54.4453 2.84766 49.9922C0.949219 45.5391 0 40.875 0 36C0 31.125 0.949219 26.4609 2.84766 22.0078C4.74609 17.5547 7.30078 13.7227 10.5117 10.5117C13.7227 7.30078 17.5547 4.74609 22.0078 2.84766C26.4609 0.949219 31.125 0 36 0C40.875 0 45.5391 0.949219 49.9922 2.84766C54.4453 4.74609 58.2773 7.30078 61.4883 10.5117C64.6992 13.7227 67.2539 17.5547 69.1523 22.0078C71.0508 26.4609 72 31.125 72 36C72 40.875 71.0508 45.5391 69.1523 49.9922C67.2539 54.4453 64.6992 58.2773 61.4883 61.4883C58.2773 64.6992 54.4453 67.2539 49.9922 69.1523C45.5391 71.0508 40.875 72 36 72ZM60.8906 16.8047C57.6562 12.5859 53.5547 9.375 48.5859 7.17188L36 13.5L23.4141 7.17188C18.4453 9.375 14.3203 12.5859 11.0391 16.8047L13.5 18V31.5L4.64062 38.1797C5.01562 43.9453 6.86719 49.2188 10.1953 54H22.5L27 65.25V66.1641C29.9531 67.0547 32.9531 67.5 36 67.5C39.0469 67.5 42.0469 67.0547 45 66.1641V65.25L49.5 54H61.8047C65.1328 49.2188 66.9844 43.9453 67.3594 38.1797L58.5 31.5V18L60.8906 16.8047ZM29.0391 44.9297L24.75 32.4844L36 24.75L47.25 32.4844L42.9609 44.9297H29.0391Z" fill="black"/>
</svg>
