<svg width="70" height="70" viewBox="0 0 70 70" fill="none" xmlns="http://www.w3.org/2000/svg">
<g clip-path="url(#clip0)">
<path d="M63.5223 -7.68266e-05C62.833 -7.68266e-05 62.1115 0.231462 61.5865 0.756462L60.4934 1.93569L59.9873 1.51569C59.8624 1.38522 59.7123 1.28139 59.5462 1.21046C59.3801 1.13952 59.2014 1.10295 59.0207 1.10295C58.8401 1.10295 58.6614 1.13952 58.4952 1.21046C58.3291 1.28139 58.1791 1.38522 58.0542 1.51569C57.9237 1.6406 57.8199 1.79063 57.749 1.95674C57.678 2.12285 57.6415 2.30161 57.6415 2.48223C57.6415 2.66285 57.678 2.84161 57.749 3.00772C57.8199 3.17383 57.9237 3.32386 58.0542 3.44877L58.4742 3.95492L57.8011 4.628L57.295 4.20531C57.1701 4.07484 57.02 3.97101 56.8539 3.90007C56.6878 3.82914 56.5091 3.79257 56.3284 3.79257C56.1478 3.79257 55.9691 3.82914 55.8029 3.90007C55.6368 3.97101 55.4868 4.07484 55.3619 4.20531C55.2306 4.33029 55.126 4.48065 55.0546 4.64726C54.9832 4.81387 54.9463 4.99326 54.9463 5.17454C54.9463 5.35582 54.9832 5.53521 55.0546 5.70182C55.126 5.86843 55.2306 6.01879 55.3619 6.14377L55.7819 6.64723L55.2757 7.15069C54.9492 7.47384 54.7148 7.87817 54.5965 8.32204C54.4782 8.76592 54.4803 9.2333 54.6027 9.67608L42.8238 21.4549C40.3927 19.328 36.715 16.8268 32.7277 16.8268C30.9588 16.8268 29.1415 17.3653 27.343 18.593C23.353 21.3203 24.1177 25.453 21.6219 27.8492C18.8219 30.5415 11.1677 28.3715 4.12189 35.4199C-2.92388 42.463 0.199199 52.2065 9.16997 60.8299C14.5492 66.4245 20.3377 69.7468 25.6604 69.7468C28.8669 69.7468 31.928 68.5299 34.58 65.878C41.6257 58.8322 39.4557 51.1834 42.1507 48.378C44.5469 45.8876 48.7604 46.733 51.4904 42.7403C55.4938 36.8899 51.6304 30.703 48.545 27.1761L60.3238 15.3972C61.2123 15.6234 62.1519 15.4215 62.8492 14.7242L63.3527 14.218L63.8588 14.6407C63.9748 14.7714 64.1169 14.8763 64.276 14.9487C64.4351 15.021 64.6075 15.0592 64.7823 15.0607C65.1613 15.0581 65.5241 14.9063 65.7919 14.638C65.9224 14.5131 66.0262 14.3631 66.0971 14.1969C66.1681 14.0308 66.2046 13.8521 66.2046 13.6715C66.2046 13.4908 66.1681 13.3121 66.0971 13.146C66.0262 12.9799 65.9224 12.8298 65.7919 12.7049L65.3719 12.1988L66.045 11.5257L66.5511 11.9484C66.6671 12.0791 66.8092 12.184 66.9683 12.2563C67.1274 12.3287 67.2998 12.3669 67.4746 12.3684C67.8536 12.3658 68.2164 12.2139 68.4842 11.9457C68.6147 11.8208 68.7185 11.6708 68.7894 11.5046C68.8604 11.3385 68.8969 11.1598 68.8969 10.9792C68.8969 10.7985 68.8604 10.6198 68.7894 10.4537C68.7185 10.2876 68.6147 10.1375 68.4842 10.0126L68.0642 9.50646L69.2434 8.41338C69.4933 8.16559 69.6917 7.87076 69.8271 7.54591C69.9624 7.22106 70.0321 6.87262 70.0321 6.52069C70.0321 6.16877 69.9624 5.82032 69.8271 5.49547C69.6917 5.17062 69.4933 4.87579 69.2434 4.628L65.3692 0.753769C65.1286 0.509414 64.8408 0.316572 64.5232 0.186975C64.2057 0.0573776 63.8652 -0.00626364 63.5223 -7.68266e-05ZM63.3527 3.19838C63.56 3.19838 63.7834 3.20915 63.9423 3.36531C64.094 3.5241 64.1787 3.73529 64.1787 3.95492C64.1787 4.17456 64.094 4.38574 63.9423 4.54454L58.5577 9.92915C58.4012 10.0862 58.1897 10.1761 57.968 10.1795C57.7472 10.1736 57.5371 10.083 57.3811 9.92646C57.2302 9.7678 57.146 9.55719 57.146 9.33819C57.146 9.1192 57.2302 8.90858 57.3811 8.74992L62.7657 3.36531C62.9219 3.20915 63.148 3.19569 63.3527 3.19569V3.19838ZM66.045 5.89069C66.2523 5.89069 66.4757 5.89877 66.6346 6.05762C66.7869 6.21609 66.872 6.4274 66.872 6.64723C66.872 6.86707 66.7869 7.07837 66.6346 7.23685L61.25 12.6215C61.0929 12.7776 60.8818 12.8673 60.6604 12.8718C60.4399 12.8666 60.2298 12.777 60.0734 12.6215C59.9217 12.4627 59.837 12.2515 59.837 12.0318C59.837 11.8122 59.9217 11.601 60.0734 11.4422L65.458 6.05762C65.6142 5.90146 65.8404 5.888 66.045 5.888V5.89069ZM32.7277 20.6095C35.3123 20.6095 38.0423 22.3649 40.1315 24.1445L31.1284 33.1476C30.9292 33.1261 30.7461 33.0615 30.5415 33.0615C28.8474 33.0671 27.2243 33.7426 26.0264 34.9406C24.8285 36.1385 24.153 37.7616 24.1473 39.4557C24.153 41.1498 24.8285 42.7729 26.0264 43.9708C27.2243 45.1687 28.8474 45.8442 30.5415 45.8499C32.2356 45.8442 33.8587 45.1687 35.0566 43.9708C36.2546 42.7729 36.9301 41.1498 36.9357 39.4557C36.9357 39.2511 36.8711 39.068 36.8523 38.8661L45.9361 29.7822C48.273 32.4907 50.9115 36.8468 48.378 40.5515C47.5542 41.7522 46.5177 42.1938 44.6761 42.8211C43.0554 43.373 41.028 44.0461 39.375 45.7665C37.5604 47.6538 37.1565 50.1361 36.6827 52.7503C36.085 56.0322 35.4146 59.7422 31.8877 63.2665C30.0354 65.1188 27.9946 66.0422 25.6604 66.0422C21.5761 66.0422 16.6761 63.2261 11.8623 58.2184C11.8358 58.1893 11.8079 58.1614 11.7788 58.1349C6.81151 53.3668 3.99535 48.4884 3.95497 44.423C3.92805 42.0511 4.8542 39.9942 6.73074 38.1122C10.2577 34.5853 13.9677 33.9122 17.2469 33.3172C19.8611 32.8434 22.3461 32.3561 24.2307 30.5415C25.9377 28.9045 26.6134 26.9257 27.1761 25.3238C27.8223 23.4876 28.2261 22.5399 29.4484 21.7053C30.493 20.9918 31.5754 20.6122 32.7277 20.6122V20.6095ZM14.9746 43.8307C14.7535 43.8356 14.543 43.9263 14.3877 44.0838L12.705 45.7692C12.5507 45.9267 12.4643 46.1383 12.4643 46.3588C12.4643 46.5792 12.5507 46.7909 12.705 46.9484L23.0515 57.2949C23.3692 57.6099 23.913 57.6099 24.2307 57.2949L25.9134 55.6122C26.0656 55.4542 26.1506 55.2434 26.1506 55.024C26.1506 54.8046 26.0656 54.5937 25.9134 54.4357L15.5642 44.0865C15.4089 43.929 15.1984 43.8383 14.9773 43.8334L14.9746 43.8307Z" fill="black"/>
</g>
<defs>
<clipPath id="clip0">
<rect width="70" height="70" fill="white"/>
</clipPath>
</defs>
</svg>
