<svg width="68" height="68" viewBox="0 0 68 68" fill="none" xmlns="http://www.w3.org/2000/svg">
<path d="M10.625 28.1562V59.5C10.625 60.0636 10.8489 60.6041 11.2474 61.0026C11.6459 61.4011 12.1864 61.625 12.75 61.625H25.5V43.5625C25.5 42.7171 25.8358 41.9064 26.4336 41.3086C27.0314 40.7108 27.8421 40.375 28.6875 40.375H39.3125C40.1579 40.375 40.9686 40.7108 41.5664 41.3086C42.1642 41.9064 42.5 42.7171 42.5 43.5625V61.625H55.25C55.8136 61.625 56.3541 61.4011 56.7526 61.0026C57.1511 60.6041 57.375 60.0636 57.375 59.5V28.1562" stroke="#E3A6D6" stroke-width="4" stroke-linecap="round" stroke-linejoin="round"/>
<path d="M63.75 34L35.4463 6.90625C34.7823 6.205 33.2297 6.19703 32.5537 6.90625L4.25 34" stroke="#E3A6D6" stroke-width="4" stroke-linecap="round" stroke-linejoin="round"/>
<path d="M53.125 23.7734V8.5H46.75V17.6641" stroke="#E3A6D6" stroke-width="4" stroke-linecap="round" stroke-linejoin="round"/>
</svg>
