<svg width="61" height="60" viewBox="0 0 61 60" fill="none" xmlns="http://www.w3.org/2000/svg">
<path d="M54.6103 45.3489H49.726C49.3926 45.3489 49.0799 45.4954 48.8715 45.7535C48.3851 46.3465 47.8641 46.9186 47.3152 47.4628C45.0704 49.7193 42.4113 51.5176 39.4852 52.7582C36.4536 54.044 33.1952 54.7036 29.9043 54.6977C26.5764 54.6977 23.3527 54.0419 20.3235 52.7582C17.3973 51.5176 14.7383 49.7193 12.4935 47.4628C10.2446 45.214 8.45142 42.5485 7.21323 39.614C5.92791 36.5721 5.28178 33.3419 5.28178 30.0001C5.28178 26.6582 5.93486 23.428 7.21323 20.3861C8.44992 17.4489 10.2285 14.8047 12.4935 12.5373C14.7584 10.2699 17.3916 8.48381 20.3235 7.24195C23.3527 5.95823 26.5764 5.30242 29.9043 5.30242C33.2323 5.30242 36.456 5.95126 39.4852 7.24195C42.4171 8.48381 45.0503 10.2699 47.3152 12.5373C47.8641 13.0885 48.3782 13.6605 48.8715 14.2466C49.0799 14.5047 49.3995 14.6512 49.726 14.6512H54.6103C55.048 14.6512 55.3189 14.1629 55.0758 13.7931C49.7469 5.47684 40.4231 -0.0278013 29.8279 0.000105618C13.1813 0.041966 -0.165199 13.6117 0.00154554 30.307C0.16829 46.7372 13.4939 60 29.9043 60C40.4717 60 49.7538 54.5023 55.0758 46.207C55.312 45.8372 55.048 45.3489 54.6103 45.3489ZM60.7867 29.5605L50.928 21.7466C50.5598 21.4536 50.0248 21.7187 50.0248 22.1861V27.4884H28.2091C27.9034 27.4884 27.6533 27.7396 27.6533 28.0466V31.9535C27.6533 32.2605 27.9034 32.5117 28.2091 32.5117H50.0248V37.814C50.0248 38.2814 50.5667 38.5466 50.928 38.2535L60.7867 30.4396C60.8532 30.3874 60.9069 30.3207 60.9439 30.2445C60.9808 30.1684 61 30.0848 61 30.0001C61 29.9153 60.9808 29.8317 60.9439 29.7556C60.9069 29.6794 60.8532 29.6127 60.7867 29.5605Z" fill="#3E023B"/>
</svg>
